<?xml version="1.0" encoding="utf-8"?>
<!-- Generator: Adobe Illustrator 22.0.1, SVG Export Plug-In . SVG Version: 6.00 Build 0)  -->
<svg version="1.1" id="Слой_1" xmlns="http://www.w3.org/2000/svg" xmlns:xlink="http://www.w3.org/1999/xlink" x="0px" y="0px"
	 viewBox="0 0 44 23.3" style="enable-background:new 0 0 44 23.3;" xml:space="preserve">
<style type="text/css">
	.st0{fill:#888888;}
</style>
<path class="st0" d="M18.6,4.4c-0.8-1.3-1.8-2.3-3.2-3.1c-1.3-0.8-3-1.2-4.9-1.2C9,0,7.6,0.3,6.3,0.9C5,1.4,3.9,2.2,3,3.3
	S1.3,5.5,0.8,7C0.3,8.4,0,9.9,0,11.6c0.1,1.7,0.3,3.3,0.8,4.7c0.4,1.4,1.1,2.7,2,3.7c0.9,1,2,1.8,3.3,2.4s2.9,0.9,4.6,0.9
	c2.5,0,4.6-0.6,6.3-1.9c1.7-1.3,2.8-2.8,3.2-5.3h-3.6c-0.3,1.5-1,2.2-2,2.9c-1,0.7-2.3,1.1-3.8,1.1c-1.2,0-2.3-0.2-3.2-0.6
	c-0.9-0.4-1.6-0.9-2.2-1.6c-0.6-0.7-1-1.5-1.3-2.3c-0.3-0.9-0.4-2-0.3-3h16.7c0.1-1.4-0.1-2.6-0.4-4.1S19.4,5.6,18.6,4.4L18.6,4.4z
	 M3.9,9.5c0.1-0.9,0.2-1.7,0.6-2.4c0.3-0.8,0.7-1.4,1.3-2c0.5-0.6,1.2-1,2-1.4c0.8-0.3,1.6-0.5,2.6-0.5c0.9,0,1.8,0.2,2.5,0.5
	s1.4,0.8,2,1.3s1,1.2,1.3,2c0.3,0.8,0.5,1.6,0.6,2.5L3.9,9.5L3.9,9.5z M35,10.8L43,0h-4.6l-5.8,8.2L27,0h-4.9l8.1,11l-8.7,12.3h4.6
	l6.5-9.6l6.5,9.6H44C44,23.3,35,10.8,35,10.8z"/>
</svg>
